rec1_008.mot
nRows=20
nColumns=19

name rec1_008.mot
datacolumns 19
datarows 20
range 5.0020398625 5.0400404904
endheader
time	ground_force_vx	ground_force_vy	ground_force_vz	ground_force_px	ground_force_py	ground_force_pz	1_ground_force_vx	1_ground_force_vy	1_ground_force_vz	1_ground_force_px	1_ground_force_py	1_ground_force_pz	ground_torque_x	ground_torque_y	ground_torque_z	1_ground_torque_x	1_ground_torque_y	1_ground_torque_z	
        5.0020398625	       -5.1500394918	      388.2331349351	      -40.7674058482	       -0.7000000000	       -0.0180000000	        0.5600000000	      -11.8626033517	      382.3529281195	       43.4893247731	       -0.7000000000	       -0.0180000000	       -0.5600000000	      151.5233031084	       22.5110765925	      362.7782414967	     -133.2047149107	      -45.3136682349	      366.0381464181	
        5.0040402387	       -5.2829501250	      389.0297393793	      -40.6823263721	       -0.7000000000	       -0.0180000000	        0.5600000000	      -11.3278934061	      383.7828250749	       43.8106338161	       -0.7000000000	       -0.0180000000	       -0.5600000000	      151.8824969716	       22.4378134289	      363.5255294769	     -133.7355865098	      -45.4216543787	      367.3032000425	
        5.0060398949	       -5.4204389274	      389.7145384254	      -40.5849038550	       -0.7000000000	       -0.0180000000	        0.5600000000	      -10.7438883846	      385.1250743293	       44.1189367051	       -0.7000000000	       -0.0180000000	       -0.5600000000	      152.1930686268	       22.3591908973	      364.1766320894	     -134.2359941066	      -45.4968775189	      368.4777292649	
        5.0080403910	       -5.5662055634	      390.2907144357	      -40.4799814693	       -0.7000000000	       -0.0180000000	        0.5600000000	      -10.1202522315	      386.3717199081	       44.4124911372	       -0.7000000000	       -0.0180000000	       -0.5600000000	      152.4554899515	       22.2808459989	      364.7358459722	     -134.7028226819	      -45.5410560603	      369.5553570433	
        5.0100399273	       -5.7243150640	      390.7610273859	      -40.3723509435	       -0.7000000000	       -0.0180000000	        0.5600000000	       -9.4672518265	      387.5148246620	       44.6895336279	       -0.7000000000	       -0.0180000000	       -0.5600000000	      152.6701209252	       22.2090291450	      365.2070803682	     -135.1329567308	      -45.5561543894	      370.5298968468	
        5.0120403834	       -5.8990502373	      391.1276844809	      -40.2665684284	       -0.7000000000	       -0.0180000000	        0.5600000000	       -8.7955327884	      388.5466886377	       44.9483651375	       -0.7000000000	       -0.0180000000	       -0.5600000000	      152.8371654646	       22.1499261145	      365.5937096990	     -135.5233587331	      -45.5444070095	      371.3955249934	
        5.0140399996	       -6.0946822280	      391.3922402381	      -40.1668057310	       -0.7000000000	       -0.0180000000	        0.5600000000	       -8.1158722746	      389.4600604618	       45.1874299242	       -0.7000000000	       -0.0180000000	       -0.5600000000	      152.9566423035	       22.1088221148	      365.8984474924	     -135.8711414454	      -45.5083333395	      372.1469286985	
        5.0160403359	       -6.3152150126	      391.5555765581	      -40.0767561675	       -0.7000000000	       -0.0180000000	        0.5600000000	       -7.4389225231	      390.2483252490	       45.4053734471	       -0.7000000000	       -0.0180000000	       -0.5600000000	      153.0283974203	       22.0895889545	      366.1232655449	     -136.1736423709	      -45.4507225822	      372.7794279354	
        5.0180400721	       -6.5641608855	      391.6179830175	      -39.9995874316	       -0.7000000000	       -0.0180000000	        0.5600000000	       -6.7749720419	      390.9056732489	       45.6010534973	       -0.7000000000	       -0.0180000000	       -0.5600000000	      153.0521606044	       22.0948443926	      366.2694011103	     -136.4285049016	      -45.3745664861	      373.2890746554	
        5.0200403283	       -6.8443804695	      391.5793270602	      -39.9379309254	       -0.7000000000	       -0.0180000000	        0.5600000000	       -6.1337436705	      391.4272600707	       45.7734897428	       -0.7000000000	       -0.0180000000	       -0.5600000000	      153.0276325522	       22.1268707023	      366.3374634394	     -136.6337608475	      -45.2829195720	      373.6727513507	
        5.0220399846	       -7.1579932621	      391.4392904154	      -39.8938975859	       -0.7000000000	       -0.0180000000	        0.5600000000	       -5.5242277963	      391.8093304770	       45.9217866825	       -0.7000000000	       -0.0180000000	       -0.5600000000	      152.9545880957	       22.1879422464	      366.3275913121	     -136.7879034636	      -45.1787145153	      373.9282803456	
        5.0240404008	       -7.5063408612	      391.1976276132	      -39.8691035148	       -0.7000000000	       -0.0180000000	        0.5600000000	       -4.9545398937	      392.0492777866	       46.0450755873	       -0.7000000000	       -0.0180000000	       -0.5600000000	      152.8329732801	       22.2795343731	      366.2396137719	     -136.8899437783	      -45.0646040453	      374.0545154926	
        5.0260400568	       -7.8899590175	      390.8543990783	      -39.8646945140	       -0.7000000000	       -0.0180000000	        0.5600000000	       -4.4317991624	      392.1456694306	       46.1424851456	       -0.7000000000	       -0.0180000000	       -0.5600000000	      152.6629757299	       22.4017608550	      366.0732331165	     -136.9394445533	      -44.9428698253	      374.0513785410	
        5.0280405932	       -8.3085159359	      390.4101639936	      -39.8813650300	       -0.7000000000	       -0.0180000000	        0.5600000000	       -3.9620231605	      392.0982835724	       46.2131388603	       -0.7000000000	       -0.0180000000	       -0.5600000000	      152.4450752594	       22.5536046334	      365.8282558594	     -136.9365256095	      -44.8153835668	      373.9198509931	
        5.0300400893	       -8.7607164280	      389.8661511592	      -39.9193713722	       -0.7000000000	       -0.0180000000	        0.5600000000	       -3.5500239645	      391.9081625096	       46.2561737582	       -0.7000000000	       -0.0180000000	       -0.5600000000	      152.1801003576	       22.7335981653	      365.5048419568	     -136.8818508028	      -44.6835832618	      373.6619752305	
        5.0320404654	       -9.2442035591	      389.2244256938	      -39.9785456098	       -0.7000000000	       -0.0180000000	        0.5600000000	       -3.1993098924	      391.5776581600	       46.2707768482	       -0.7000000000	       -0.0180000000	       -0.5600000000	      151.8693007924	       22.9404454796	      365.1037413795	     -136.7766171294	      -44.5484481207	      373.2808912774	
        5.0340401217	       -9.7554901172	      388.4880446439	      -40.0583132939	       -0.7000000000	       -0.0180000000	        0.5600000000	       -2.9120296853	      391.1104324238	       46.2562455285	       -0.7000000000	       -0.0180000000	       -0.5600000000	      151.5144200056	       23.1728677470	      364.6265164634	     -136.6225380832	      -44.4104965987	      372.7808642073	
        5.0360404580	      -10.2899570861	      387.6611857504	      -40.1577281857	       -0.7000000000	       -0.0180000000	        0.5600000000	       -2.6889894874	      390.5114057343	       46.2120670007	       -0.7000000000	       -0.0180000000	       -0.5600000000	      151.1177483119	       23.4290482128	      364.0757314569	     -136.4217968612	      -44.2698383444	      372.1672558015	
        5.0380401141	      -10.8419541447	      386.7492469968	      -40.2755542521	       -0.7000000000	       -0.0180000000	        0.5600000000	       -2.5297224777	      389.7866822852	       46.1380069730	       -0.7000000000	       -0.0180000000	       -0.5600000000	      150.6821526447	       23.7063833450	      363.4550791360	     -136.1769718008	      -44.1262786119	      371.4464513976	
        5.0400404904	      -11.4049971085	      385.7589136879	      -40.4104065382	       -0.7000000000	       -0.0180000000	        0.5600000000	       -2.4325697960	      388.9434483282	       46.0342023318	       -0.7000000000	       -0.0180000000	       -0.5600000000	      150.2110768118	       24.0014572630	      362.7694502659	     -135.8909530049	      -43.9794487439	      370.6257464112	
